<?xml version="1.0" encoding="UTF-8" standalone="no"?>
<svg
   width="2031.9945mm"
   height="1143.0181mm"
   viewBox="0 0 2031.9945 1143.0181"
   version="1.1"
   id="svg8"
   inkscape:version="1.1 (c4e8f9ed74, 2021-05-24)"
   sodipodi:docname="wallpaper-arch.svg"
   xmlns:inkscape="http://www.inkscape.org/namespaces/inkscape"
   xmlns:sodipodi="http://sodipodi.sourceforge.net/DTD/sodipodi-0.dtd"
   xmlns="http://www.w3.org/2000/svg"
   xmlns:svg="http://www.w3.org/2000/svg"
   xmlns:rdf="http://www.w3.org/1999/02/22-rdf-syntax-ns#"
   xmlns:cc="http://creativecommons.org/ns#"
   xmlns:dc="http://purl.org/dc/elements/1.1/">
  <defs
     id="defs2" />
  <sodipodi:namedview
     id="base"
     pagecolor="#ffffff"
     bordercolor="#666666"
     borderopacity="1.0"
     inkscape:pageopacity="0.0"
     inkscape:pageshadow="2"
     inkscape:zoom="0.98994948"
     inkscape:cx="4013.8412"
     inkscape:cy="2022.8305"
     inkscape:document-units="mm"
     inkscape:current-layer="svg8"
     inkscape:document-rotation="0"
     showgrid="false"
     inkscape:window-width="2516"
     inkscape:window-height="1411"
     inkscape:window-x="44"
     inkscape:window-y="0"
     inkscape:window-maximized="1"
     inkscape:pagecheckerboard="0" />
  <metadata
     id="metadata5">
    <rdf:RDF>
      <cc:Work
         rdf:about="">
        <dc:format>image/svg+xml</dc:format>
        <dc:type
           rdf:resource="http://purl.org/dc/dcmitype/StillImage" />
      </cc:Work>
    </rdf:RDF>
  </metadata>
  <g
     inkscape:groupmode="layer"
     id="layer4"
     inkscape:label="Background"
     transform="translate(1550.4583,783.93442)"
     sodipodi:insensitive="true">
    <path
       style="fill:#32312f;fill-opacity:1;stroke:none;stroke-width:0.264583px;stroke-linecap:butt;stroke-linejoin:miter;stroke-opacity:1"
       d="M -173.49107,-783.93442 H -1550.4583 V 359.08329 h 645.19943 z"
       id="path889" />
    <path
       style="fill:#1880b3;fill-opacity:1;stroke:none;stroke-width:0.264583px;stroke-linecap:butt;stroke-linejoin:miter;stroke-opacity:1"
       d="M -173.49107,-783.9344 H 481.53616 V 359.07659 l -1386.79501,0.007 z"
       id="path891" />
  </g>
  <g
     inkscape:groupmode="layer"
     id="layer3"
     inkscape:label="Circle"
     transform="translate(1550.4583,783.93442)"
     sodipodi:insensitive="true"
     style="display:inline">
    <ellipse
       style="fill:#ffffff;fill-opacity:1;stroke:none;stroke-width:0.880524;stroke-opacity:1"
       id="path886"
       cx="-534.42828"
       cy="-212.47925"
       rx="162.07603"
       ry="161.94913" />
  </g>
  <g
     inkscape:groupmode="layer"
     id="layer2"
     inkscape:label="Logo"
     style="display:inline"
     transform="translate(1550.4583,783.93442)"
     sodipodi:insensitive="true" />
  <path
     style="fill:#1880b3;fill-opacity:1;stroke:none;stroke-width:0.218379px;stroke-linecap:butt;stroke-linejoin:miter;stroke-opacity:1"
     d="m 1015.3198,409.96854 c 26.9202,68.67046 61.7723,135.73211 97.1265,202.69199 -13.1061,-8.0854 -23.8602,-10.82108 -34.8049,-13.99082 13.3701,7.67079 26.9027,15.68214 43.9273,31.01737 l 21.5622,40.51183 c -32.1916,-16.10048 -61.0605,-36.71282 -99.8936,-43.7947 2.5087,-16.98774 1.6089,-27.84193 -1.7592,-37.98538 -12.5944,-37.93037 -41.4581,-32.60548 -51.45283,-1.37453 -2.99402,9.35561 -4.9062,27.87399 -1.635,39.21741 -25.41063,3.93079 -60.12474,20.21288 -100.5639,44.0956 32.3602,-59.07909 64.01099,-118.27479 92.93508,-177.91858 10.64843,8.57772 22.50265,15.81072 36.14145,21.05318 -13.1747,-8.8288 -22.50684,-19.06124 -32.53406,-29.03974 11.3272,-24.9269 20.77546,-49.66963 30.95096,-74.48363 z"
     id="path556"
     sodipodi:nodetypes="ccccccsscccccc" />
</svg>
