<?xml version="1.0" encoding="UTF-8" standalone="no"?>
<svg
   width="2031.9945mm"
   height="1143.0181mm"
   viewBox="0 0 2031.9945 1143.0181"
   version="1.1"
   id="svg8"
   inkscape:version="1.1 (c68e22c387, 2021-05-23)"
   sodipodi:docname="wallpaper-nixos.svg"
   xmlns:inkscape="http://www.inkscape.org/namespaces/inkscape"
   xmlns:sodipodi="http://sodipodi.sourceforge.net/DTD/sodipodi-0.dtd"
   xmlns="http://www.w3.org/2000/svg"
   xmlns:svg="http://www.w3.org/2000/svg"
   xmlns:rdf="http://www.w3.org/1999/02/22-rdf-syntax-ns#"
   xmlns:cc="http://creativecommons.org/ns#"
   xmlns:dc="http://purl.org/dc/elements/1.1/">
  <defs
     id="defs2" />
  <sodipodi:namedview
     id="base"
     pagecolor="#ffffff"
     bordercolor="#666666"
     borderopacity="1.0"
     inkscape:pageopacity="0.0"
     inkscape:pageshadow="2"
     inkscape:zoom="0.35"
     inkscape:cx="3897.1429"
     inkscape:cy="2541.4286"
     inkscape:document-units="mm"
     inkscape:current-layer="svg8"
     inkscape:document-rotation="0"
     showgrid="false"
     inkscape:window-width="1857"
     inkscape:window-height="1057"
     inkscape:window-x="55"
     inkscape:window-y="-8"
     inkscape:window-maximized="1"
     inkscape:pagecheckerboard="0" />
  <metadata
     id="metadata5">
    <rdf:RDF>
      <cc:Work
         rdf:about="">
        <dc:format>image/svg+xml</dc:format>
        <dc:type
           rdf:resource="http://purl.org/dc/dcmitype/StillImage" />
      </cc:Work>
    </rdf:RDF>
  </metadata>
  <g
     inkscape:groupmode="layer"
     id="layer4"
     inkscape:label="Background"
     transform="translate(1550.4583,783.93442)"
     sodipodi:insensitive="true"
     style="display:inline">
    <path
       style="fill:#32312f;fill-opacity:1;stroke:none;stroke-width:0.264583px;stroke-linecap:butt;stroke-linejoin:miter;stroke-opacity:1"
       d="M -173.49107,-783.93442 H -1550.4583 V 359.08329 h 645.19943 z"
       id="path889" />
    <path
       style="fill:#1880b3;fill-opacity:1;stroke:none;stroke-width:0.264583px;stroke-linecap:butt;stroke-linejoin:miter;stroke-opacity:1"
       d="M -173.49107,-783.9344 H 481.53616 V 359.07659 l -1386.79501,0.007 z"
       id="path891" />
  </g>
  <g
     inkscape:groupmode="layer"
     id="layer3"
     inkscape:label="Circle"
     transform="translate(1550.4583,783.93442)"
     style="display:inline"
     sodipodi:insensitive="true">
    <ellipse
       style="fill:#ffffff;fill-opacity:1;stroke:none;stroke-width:0.880524;stroke-opacity:1"
       id="path886"
       cx="-534.42828"
       cy="-212.47925"
       rx="162.07603"
       ry="161.94913" />
  </g>
  <g
     inkscape:groupmode="layer"
     id="layer2"
     inkscape:label="Logo"
     style="display:inline"
     transform="translate(1550.4583,783.93442)" />
  <g
     id="g1928">
    <path
       style="fill:#1880b3;fill-opacity:1;stroke:none;stroke-width:0.273719px;stroke-linecap:butt;stroke-linejoin:miter;stroke-opacity:1"
       d="m 1074.4019,441.8895 h 16.8142 l 8.4706,14.67165 -27.8396,48.21973 19.9149,34.49366 -16.9304,29.32437 -73.0703,-126.56135 h 33.8516 l 19.2888,33.40906 z m -6.4775,49.84274 -19.5002,33.55713 z"
       id="path953"
       sodipodi:nodetypes="cccccccccc" />
    <path
       style="fill:#1880b3;fill-opacity:1;stroke:none;stroke-width:0.273719px;stroke-linecap:butt;stroke-linejoin:miter;stroke-opacity:1"
       d="m 933.22228,456.50028 8.4071,-14.56153 16.94133,6e-5 27.83971,48.21966 39.82978,3e-5 16.9305,29.32441 -146.14051,4e-5 16.92579,-29.31633 38.5775,-6e-5 z m 39.92633,30.53105 19.31125,33.66628 z"
       id="path953-1"
       sodipodi:nodetypes="cccccccccc" />
    <path
       style="fill:#1880b3;fill-opacity:1;stroke:none;stroke-width:0.273719px;stroke-linecap:butt;stroke-linejoin:miter;stroke-opacity:1"
       d="m 1098.1776,686.44591 -8.5411,14.4833 -16.9407,-0.15644 -27.3934,-48.4746 -39.8281,-0.36766 -16.65908,-29.47945 146.13428,1.34896 -17.1957,29.15881 -38.5759,-0.35603 z m -39.6428,-30.8983 -18.9996,-33.84311 z"
       id="path953-7"
       sodipodi:nodetypes="cccccccccc" />
    <path
       style="fill:#1880b3;fill-opacity:1;stroke:none;stroke-width:0.273719px;stroke-linecap:butt;stroke-linejoin:miter;stroke-opacity:1"
       d="m 1157.3076,557.41572 8.2723,14.63849 -8.6056,14.59273 -55.677,-0.51383 -20.2325,34.3083 -33.8595,-0.31256 74.2354,-125.88158 16.6545,29.47135 -19.5963,33.22963 z m -46.5801,18.8825 -38.8088,-0.46738 z"
       id="path953-1-2"
       sodipodi:nodetypes="cccccccccc" />
    <path
       style="fill:#1880b3;fill-opacity:1;stroke:none;stroke-width:0.273719px;stroke-linecap:butt;stroke-linejoin:miter;stroke-opacity:1"
       d="m 874.26937,585.46384 -8.27237,-14.63845 8.60585,-14.59287 55.67693,0.51392 20.23238,-34.30821 33.85953,0.3125 -74.23535,125.88146 -16.65441,-29.47135 19.59626,-33.22963 z m 46.58008,-18.88249 38.80883,0.46738 z"
       id="path953-7-3"
       sodipodi:nodetypes="cccccccccc" />
    <path
       style="fill:#1880b3;fill-opacity:1;stroke:none;stroke-width:0.273719px;stroke-linecap:butt;stroke-linejoin:miter;stroke-opacity:1"
       d="m 956.44776,701.18706 -16.81344,-0.15522 -8.33486,-14.74906 28.28349,-47.96079 -19.59562,-34.676 17.20044,-29.16693 71.89893,127.23055 -33.85016,-0.31248 -18.97954,-33.58564 z m 6.93732,-49.78078 19.80917,-33.37572 z"
       id="path953-1-2-5"
       sodipodi:nodetypes="cccccccccc" />
  </g>
</svg>
